<svg xmlns="http://www.w3.org/2000/svg" viewBox="0 0 240 150" width="240" height="150">
  <rect width="240" height="150" fill="#229ED9"/>
  <g transform="translate(84 39) scale(3)" fill="#ffffff">
    <path d="M11.944 0A12 12 0 0 0 0 12a12 12 0 0 0 12 12 12 12 0 0 0 12-12A12 12 0 0 0 12 0a12 12 0 0 0-.628 0zm4.955 16.331c.22.136.38.366.417.638l.005.083a.826.826 0 0 1-.764.906l-.08.002a.86.86 0 0 1-.45-.13l-.06-.046-2.67-2.18-1.54 1.46c-.15.14-.36.21-.58.18l-.07-.02-.05-.02a.6.6 0 0 1-.36-.3l-.03-.07-1.33-4.37-3.73-1.16a.6.6 0 0 1-.02-1.14l.08-.02 9.49-3.64c.14-.05.29-.04.42.02l.07.04c.13.09.22.22.25.37l.004.06.002.02v.01l-1.44 9.32zm-6.2-4.6l.88 2.92.9-2.2-1.78-.72z"/>
  </g>
</svg>
