<svg xmlns="http://www.w3.org/2000/svg" viewBox="0 0 240 150" width="240" height="150">
  <rect width="240" height="150" fill="#ffffff"/>
  <g transform="translate(70 25) scale(0.4167)">
    <defs>
      <linearGradient id="tg" x1=".667" y1=".167" x2=".417" y2=".75">
        <stop offset="0" stop-color="#37aee2"/>
        <stop offset="1" stop-color="#1e96c8"/>
      </linearGradient>
    </defs>
    <circle cx="120" cy="120" r="120" fill="url(#tg)"/>
    <path fill="#c8daea" d="M98 175c-3.888 0-3.227-1.468-4.568-5.17L82 132.207 170 80"/>
    <path fill="#a9c9dd" d="M98 175c3 0 4.325-1.372 6-3l16-15.558-19.958-12.035"/>
    <path fill="#f6fbfe" d="M100.04 144.41l48.36 35.729c5.519 3.045 9.501 1.468 10.876-5.123l19.685-92.763c2.015-8.08-3.08-11.745-8.36-9.349L60.06 122.585c-7.85 3.15-7.804 7.534-1.432 9.483l29.196 9.113L156.7 99.85c3.19-1.934 6.119-.895 3.715 1.234"/>
  </g>
</svg>
